<?xml version="1.0" encoding="iso-8859-1"?>
<svg xmlns="http://www.w3.org/2000/svg" version="1.1" xmlns:xlink="http://www.w3.org/1999/xlink" width="512" height="512" x="0" y="0" viewBox="0 0 512 512" xml:space="preserve">
    <rect width="512" height="512" fill="#f4314a" shape="square"></rect>
    <g transform="matrix(0.7,0,0,0.7,76.80000000000001,76.80000000000001)">
        <path d="m480 288v-32c0-123.52-100.512-224-224-224-123.52 0-224 100.48-224 224v32c-17.632 0-32 14.336-32 32v128c0 17.664 14.368 32 32 32h64c17.632 0 32-14.336 32-32v-128c0-17.664-14.368-32-32-32v-32c0-88.224 71.776-160 160-160s160 71.776 160 160v32c-17.664 0-32 14.336-32 32v128c0 17.664 14.336 32 32 32h64c17.664 0 32-14.336 32-32v-128c0-17.664-14.336-32-32-32z" fill="#f5f5f5"></path>
    </g>
</svg>